<mxfile host="app.diagrams.net" modified="2023-08-09T14:28:35.301Z" agent="Mozilla/5.0 (Windows NT 10.0; Win64; x64) AppleWebKit/537.36 (KHTML, like Gecko) Chrome/115.0.0.0 Safari/537.36" etag="0A9L5YWYHQfpEsy6jKNZ" version="21.6.6" type="github">
  <diagram name="Страница 1" id="PYmNW6Q1ohFPDwjfIy3i">
    <mxGraphModel dx="114" dy="492" grid="1" gridSize="10" guides="1" tooltips="1" connect="1" arrows="1" fold="1" page="1" pageScale="1" pageWidth="827" pageHeight="1169" math="0" shadow="0">
      <root>
        <mxCell id="0" />
        <mxCell id="1" parent="0" />
        <mxCell id="uNZkJAKRfunS0YY1ZFy3-1" value="client &#xa;(напр., api-workflow)" style="shape=umlLifeline;perimeter=lifelinePerimeter;container=1;collapsible=0;recursiveResize=0;rounded=0;shadow=0;strokeWidth=1;fontSize=10;" vertex="1" parent="1">
          <mxGeometry x="890" y="32" width="100" height="272" as="geometry" />
        </mxCell>
        <mxCell id="uNZkJAKRfunS0YY1ZFy3-2" value="" style="points=[];perimeter=orthogonalPerimeter;rounded=0;shadow=0;strokeWidth=1;" vertex="1" parent="uNZkJAKRfunS0YY1ZFy3-1">
          <mxGeometry x="45" y="80" width="10" height="160" as="geometry" />
        </mxCell>
        <mxCell id="uNZkJAKRfunS0YY1ZFy3-3" value="" style="verticalAlign=bottom;startArrow=oval;endArrow=block;startSize=8;shadow=0;strokeWidth=1;fontSize=7;" edge="1" parent="1">
          <mxGeometry x="-0.0476" relative="1" as="geometry">
            <mxPoint x="840" y="112" as="sourcePoint" />
            <mxPoint as="offset" />
            <mxPoint x="940" y="112" as="targetPoint" />
          </mxGeometry>
        </mxCell>
        <mxCell id="uNZkJAKRfunS0YY1ZFy3-4" value="&lt;span style=&quot;background-color: rgb(248, 249, 250); font-size: 8px;&quot;&gt;Вызов действия ЖЦ,&lt;/span&gt;&lt;br style=&quot;background-color: rgb(248, 249, 250); font-size: 8px;&quot;&gt;&lt;span style=&quot;background-color: rgb(248, 249, 250); font-size: 8px;&quot;&gt;запускающего коннектор&amp;nbsp;&amp;nbsp;&lt;/span&gt;" style="edgeLabel;html=1;align=center;verticalAlign=middle;resizable=0;points=[];fontSize=8;" vertex="1" connectable="0" parent="uNZkJAKRfunS0YY1ZFy3-3">
          <mxGeometry x="-0.1501" y="-1" relative="1" as="geometry">
            <mxPoint x="7" y="-16" as="offset" />
          </mxGeometry>
        </mxCell>
        <mxCell id="uNZkJAKRfunS0YY1ZFy3-5" value="connector" style="shape=umlLifeline;perimeter=lifelinePerimeter;container=1;collapsible=0;recursiveResize=0;rounded=0;shadow=0;strokeWidth=1;" vertex="1" parent="1">
          <mxGeometry x="1095" y="30" width="100" height="270" as="geometry" />
        </mxCell>
        <mxCell id="uNZkJAKRfunS0YY1ZFy3-6" value="" style="points=[];perimeter=orthogonalPerimeter;rounded=0;shadow=0;strokeWidth=1;" vertex="1" parent="uNZkJAKRfunS0YY1ZFy3-5">
          <mxGeometry x="45" y="80" width="10" height="161" as="geometry" />
        </mxCell>
        <mxCell id="uNZkJAKRfunS0YY1ZFy3-7" value="2. Выполнение метода&#xa;указанного в параметрах запуска" style="verticalAlign=bottom;endArrow=block;shadow=0;strokeWidth=1;fontSize=8;entryX=0.067;entryY=-0.003;entryDx=0;entryDy=0;entryPerimeter=0;" edge="1" parent="uNZkJAKRfunS0YY1ZFy3-5" target="uNZkJAKRfunS0YY1ZFy3-9">
          <mxGeometry relative="1" as="geometry">
            <mxPoint x="54" y="79.99999999999989" as="sourcePoint" />
            <mxPoint x="194" y="79.99999999999989" as="targetPoint" />
          </mxGeometry>
        </mxCell>
        <mxCell id="uNZkJAKRfunS0YY1ZFy3-8" value="Внешняя система" style="shape=umlLifeline;perimeter=lifelinePerimeter;container=1;collapsible=0;recursiveResize=0;rounded=0;shadow=0;strokeWidth=1;" vertex="1" parent="1">
          <mxGeometry x="1330" y="32" width="101" height="272" as="geometry" />
        </mxCell>
        <mxCell id="uNZkJAKRfunS0YY1ZFy3-9" value="" style="points=[];perimeter=orthogonalPerimeter;rounded=0;shadow=0;strokeWidth=1;" vertex="1" parent="uNZkJAKRfunS0YY1ZFy3-8">
          <mxGeometry x="45.5" y="80" width="10" height="160" as="geometry" />
        </mxCell>
        <mxCell id="uNZkJAKRfunS0YY1ZFy3-10" value="" style="edgeStyle=elbowEdgeStyle;elbow=vertical;endArrow=classic;html=1;rounded=0;fontSize=7;exitX=1.08;exitY=0;exitDx=0;exitDy=0;exitPerimeter=0;entryX=0.96;entryY=0.578;entryDx=0;entryDy=0;entryPerimeter=0;" edge="1" parent="uNZkJAKRfunS0YY1ZFy3-8" source="uNZkJAKRfunS0YY1ZFy3-9" target="uNZkJAKRfunS0YY1ZFy3-9">
          <mxGeometry width="50" height="50" relative="1" as="geometry">
            <mxPoint x="131" y="162" as="sourcePoint" />
            <mxPoint x="181" y="112" as="targetPoint" />
            <Array as="points">
              <mxPoint x="91" y="82" />
              <mxPoint x="141" y="122" />
            </Array>
          </mxGeometry>
        </mxCell>
        <mxCell id="uNZkJAKRfunS0YY1ZFy3-11" value="3. Обработка запроса" style="text;html=1;strokeColor=none;fillColor=none;align=center;verticalAlign=middle;whiteSpace=wrap;rounded=0;fontSize=8;" vertex="1" parent="uNZkJAKRfunS0YY1ZFy3-8">
          <mxGeometry x="91" y="112" width="60" height="30" as="geometry" />
        </mxCell>
        <mxCell id="uNZkJAKRfunS0YY1ZFy3-12" value="1. Запуск коннектора" style="verticalAlign=bottom;endArrow=block;shadow=0;strokeWidth=1;fontSize=8;exitX=1.03;exitY=0;exitDx=0;exitDy=0;exitPerimeter=0;entryX=-0.033;entryY=0.001;entryDx=0;entryDy=0;entryPerimeter=0;" edge="1" parent="1" source="uNZkJAKRfunS0YY1ZFy3-2" target="uNZkJAKRfunS0YY1ZFy3-6">
          <mxGeometry relative="1" as="geometry">
            <mxPoint x="950" y="112" as="sourcePoint" />
            <mxPoint x="1150" y="112" as="targetPoint" />
          </mxGeometry>
        </mxCell>
        <mxCell id="uNZkJAKRfunS0YY1ZFy3-13" value="5. Возврат клиенту в ответе параметров, &lt;br&gt;полученных в ответе от внешней системы" style="endArrow=block;dashed=1;endFill=0;endSize=12;html=1;rounded=0;fontSize=8;exitX=-0.107;exitY=0.581;exitDx=0;exitDy=0;exitPerimeter=0;entryX=1.014;entryY=0.585;entryDx=0;entryDy=0;entryPerimeter=0;" edge="1" parent="1" source="uNZkJAKRfunS0YY1ZFy3-6" target="uNZkJAKRfunS0YY1ZFy3-2">
          <mxGeometry x="0.0046" y="-12" width="160" relative="1" as="geometry">
            <mxPoint x="1180" y="312" as="sourcePoint" />
            <mxPoint x="950" y="312" as="targetPoint" />
            <Array as="points" />
            <mxPoint as="offset" />
          </mxGeometry>
        </mxCell>
        <mxCell id="uNZkJAKRfunS0YY1ZFy3-14" value="&lt;span style=&quot;color: rgb(0, 0, 0); font-family: Helvetica; font-size: 8px; font-style: normal; font-variant-ligatures: normal; font-variant-caps: normal; font-weight: 400; letter-spacing: normal; orphans: 2; text-align: center; text-indent: 0px; text-transform: none; widows: 2; word-spacing: 0px; -webkit-text-stroke-width: 0px; background-color: rgb(255, 255, 255); text-decoration-thickness: initial; text-decoration-style: initial; text-decoration-color: initial; float: none; display: inline !important;&quot;&gt;4. Ответ на запрос&lt;/span&gt;" style="endArrow=block;dashed=1;endFill=0;endSize=12;html=1;rounded=0;fontSize=8;exitX=-0.12;exitY=0.563;exitDx=0;exitDy=0;exitPerimeter=0;" edge="1" parent="1" source="uNZkJAKRfunS0YY1ZFy3-9">
          <mxGeometry x="0.0357" y="-10" width="160" relative="1" as="geometry">
            <mxPoint x="1380" y="222" as="sourcePoint" />
            <mxPoint x="1151" y="204" as="targetPoint" />
            <Array as="points" />
            <mxPoint as="offset" />
          </mxGeometry>
        </mxCell>
        <mxCell id="uNZkJAKRfunS0YY1ZFy3-15" value="При выполнении метода указываются необходимые параметры запроса" style="text;html=1;strokeColor=none;fillColor=none;align=center;verticalAlign=middle;whiteSpace=wrap;rounded=0;fontSize=7;" vertex="1" parent="1">
          <mxGeometry x="1215" y="114" width="134" height="30" as="geometry" />
        </mxCell>
      </root>
    </mxGraphModel>
  </diagram>
</mxfile>
